<svg width="64" height="64" version="1.1" viewBox="0 0 16.9 16.9" xmlns="http://www.w3.org/2000/svg" xmlns:xlink="http://www.w3.org/1999/xlink">
 <defs>
  <linearGradient id="linearGradient84355" x1="8.48" x2="8.48" y1="1.52" y2="15.9" gradientUnits="userSpaceOnUse">
   <stop stop-color="#3e61be" offset="0"/>
   <stop stop-color="#171a71" offset="1"/>
  </linearGradient>
  <linearGradient id="linearGradient89512" x1="15" x2="15" y1="-13.8" y2="-3.12" gradientTransform="matrix(.454 0 0 .582 .955 13.6)" gradientUnits="userSpaceOnUse">
   <stop stop-color="#e4dffc" offset="0"/>
   <stop stop-color="#671db9" offset=".513"/>
   <stop stop-color="#9632c6" offset=".696"/>
   <stop stop-color="#dc93eb" offset="1"/>
  </linearGradient>
 </defs>
 <rect x="-1.73e-18" y="-1.73e-18" width="16.9" height="16.9" ry="4.23" fill="url(#linearGradient84355)"/>
 <path transform="matrix(1.04 0 0 1.04 -.451 2.13)" d="m14.5 3.5c-.208 0-.403.0681-.578.199-.174.131-.311.308-.412.529-.101.221-.15.46-.15.717 0 .199.0234.38.0762.543.0529.16.123.3.209.416.085.114.175.206.271.277.0953.0701.19.123.281.158a.0611.0611 0 00.0781-.0352l.307-.857a.0611.0611 0 00-.0195-.0703c-.000925-.000728-.0099-.00572-.0137-.00781-.0038-.00209-.0086-.00516-.0137-.00781-.0101-.00531-.0221-.0125-.0391-.0215v.00195c-.0345-.0192-.0669-.0374-.0977-.0547-.0481-.0262-.0881-.0687-.121-.131v-.00195c-.0316-.0627-.0488-.132-.0488-.209 0-.108.0289-.193.084-.264.0558-.0716.112-.0996.188-.0996.0753 0 .133.0291.188.0996.0552.0708.084.155.084.264a.0611.0611 0 00.0606.0605h.748a.0611.0611 0 00.0606-.0605c0-.194-.0282-.38-.0859-.555-.0568-.176-.136-.328-.24-.461-.104-.133-.227-.241-.367-.316v.00195c-.14-.0771-.291-.115-.447-.115zm-12.9.00586a.0611.0611 0 00-.0547.0605v1.37a.0611.0611 0 00.0117.0371l2.82 3.66a.0611.0611 0 00.109-.0371v-4.92a.0611.0611 0 00-.0605-.0605h-.75a.0611.0611 0 00-.0605.0605v2.41l-1.96-2.55a.0611.0611 0 00-.0547-.0234zm9.15 0a.0611.0611 0 00-.0527.043l-.572 1.81a.0611.0611 0 000 .0371l.42 1.25a.0611.0611 0 00.117-.00195l.0938-.293.715 2.26a.0611.0611 0 00.117 0l.404-1.28a.0611.0611 0 000-.0352l-1.18-3.75a.0611.0611 0 00-.0644-.043zm-5.4.109a.0611.0611 0 00-.0605.0605v4.81a.0611.0611 0 00.0605.0605h.748a.0611.0611 0 00.0605-.0605v-4.81a.0611.0611 0 00-.0605-.0605zm1.15 0a.0611.0611 0 00-.0605.0605v.957a.0611.0611 0 00.0605.0605h1.55a.0611.0611 0 00.0605-.0605v-.957a.0611.0611 0 00-.0605-.0605zm1.93 0a.0611.0611 0 00-.0586.0781l1.55 4.92a.0611.0611 0 00.117 0l.406-1.28a.0611.0611 0 000-.0352l-1.15-3.64a.0611.0611 0 00-.0586-.043zm3.84 0a.0611.0611 0 00-.0586.043l-.51 1.7a.0611.0611 0 000 .0352l.387 1.24a.0611.0611 0 00.117 0l.934-2.95a.0611.0611 0 00-.0586-.0781zm-5.77 1.92a.0611.0611 0 00-.0605.0605v.961a.0611.0611 0 00.0605.0605h1.55a.0611.0611 0 00.0605-.0605v-.961a.0611.0611 0 00-.0605-.0605zm8.38.0371a.0611.0611 0 00-.0644.041l-.307.869a.0611.0611 0 00.0312.0742c.22.111.32.271.32.512 0 .142-.0398.258-.117.357-.0771.0988-.159.141-.26.141-.1 0-.182-.0416-.26-.141-.0779-.0989-.117-.215-.117-.357a.0611.0611 0 00-.0606-.0605h-.758a.0611.0611 0 00-.0606.0605c0 .28.0555.543.166.785.111.241.263.435.455.578.193.144.407.217.635.217.226 0 .44-.072.631-.215.192-.143.341-.337.451-.578a.0611.0611 0 00.002 0c.11-.243.162-.506.162-.787 0-.222-.0322-.433-.102-.633-.0684-.2-.166-.375-.293-.523-.126-.149-.273-.263-.436-.336a.0611.0611 0 00-.0195-.00391zm-13.3.0391a.0611.0611 0 00-.0547.0605v2.81a.0611.0611 0 00.0605.0605h.748a.0611.0611 0 00.0605-.0605v-1.84a.0611.0611 0 00-.0117-.0371l-.748-.971a.0611.0611 0 00-.0547-.0234zm4.9 1.86a.0611.0611 0 00-.0605.0605v.959a.0611.0611 0 00.0605.0605h1.55a.0611.0611 0 00.0605-.0605v-.959a.0611.0611 0 00-.0605-.0605z" fill="#d918ff" fill-opacity=".904" style="white-space:pre"/>
 <path d="m14.5 5.71c-.203 0-.39.0644-.563.194-.172.129-.309.305-.41.526-.101.221-.151.461-.151.72 0 .201.0264.383.0788.544.0532.161.122.299.206.413.0852.114.175.207.27.277.0954.0701.187.122.276.156l.319-.891c-.0038-.00302-.0241-.0144-.0601-.0334-.036-.02-.0699-.0388-.102-.0568-.0626-.0341-.114-.088-.153-.162-.0383-.0752-.0571-.158-.0571-.247 0-.123.033-.228.0994-.313.0672-.0862.149-.129.246-.129.097 0 .179.0429.245.128.0665.0852.0999.19.0999.314h.777c0-.195-.0288-.381-.0866-.557-.0571-.176-.137-.33-.24-.461-.103-.132-.224-.236-.361-.31-.137-.0752-.282-.112-.434-.112zm-13.4.00568v1.42l2.93 3.8v-5.12h-.779v2.69zm9.51 0-.595 1.88.438 1.3.157-.498.804 2.54.42-1.33zm-5.62.113v5h.779v-5zm1.19 0v.996h1.61v-.996zm2.01 0 1.61 5.12.423-1.33-1.19-3.79zm3.99 0-.529 1.77.402 1.29.97-3.06zm-6 2v.998h1.61v-.998zm8.71.0391-.319.902c.245.123.367.319.367.589 0 .159-.0443.297-.133.411-.0891.114-.196.171-.321.171-.124 0-.23-.0568-.32-.171-.0899-.114-.135-.251-.135-.411h-.787c0 .283.0559.546.167.789.112.243.263.435.454.577.191.142.398.213.621.213.222 0 .428-.0707.617-.212.19-.141.34-.333.45-.575.11-.244.165-.508.165-.793 0-.224-.0348-.437-.104-.637-.0688-.201-.166-.376-.293-.523-.126-.148-.269-.258-.429-.331zm-13.8.0391v2.93h.777v-1.92zm5.09 1.93v.996h1.61v-.996z" fill="url(#linearGradient89512)" style="white-space:pre"/>
 <text fill="black" font-family="sans-serif" font-size="10.6px" letter-spacing="0px" word-spacing="0px" style="line-height:1.25;shape-inside:url(#rect848);white-space:pre" xml:space="preserve"/>
</svg>
