<?xml version="1.0" encoding="UTF-8" standalone="no"?>
<svg
   xmlns:dc="http://purl.org/dc/elements/1.1/"
   xmlns:cc="http://creativecommons.org/ns#"
   xmlns:rdf="http://www.w3.org/1999/02/22-rdf-syntax-ns#"
   xmlns:svg="http://www.w3.org/2000/svg"
   xmlns="http://www.w3.org/2000/svg"
   xmlns:sodipodi="http://sodipodi.sourceforge.net/DTD/sodipodi-0.dtd"
   xmlns:inkscape="http://www.inkscape.org/namespaces/inkscape"
   width="32"
   height="32"
   viewBox="0 0 8.4666665 8.4666669"
   version="1.1"
   id="svg8"
   inkscape:version="1.0.2 (e86c870879, 2021-01-15, custom)"
   sodipodi:docname="reposts-icon.svg">
  <defs
     id="defs2" />
  <sodipodi:namedview
     id="base"
     pagecolor="#ffffff"
     bordercolor="#666666"
     borderopacity="1.0"
     inkscape:pageopacity="0.0"
     inkscape:pageshadow="2"
     inkscape:zoom="9.9112598"
     inkscape:cx="18.159164"
     inkscape:cy="-2.3325078"
     inkscape:document-units="px"
     inkscape:current-layer="layer1"
     inkscape:document-rotation="0"
     showgrid="false"
     units="px"
     inkscape:window-width="1920"
     inkscape:window-height="1017"
     inkscape:window-x="-8"
     inkscape:window-y="-8"
     inkscape:window-maximized="1" />
  <metadata
     id="metadata5">
    <rdf:RDF>
      <cc:Work
         rdf:about="">
        <dc:format>image/svg+xml</dc:format>
        <dc:type
           rdf:resource="http://purl.org/dc/dcmitype/StillImage" />
        <dc:title />
      </cc:Work>
    </rdf:RDF>
  </metadata>
  <g
     inkscape:label="Layer 1"
     inkscape:groupmode="layer"
     id="layer1">
    <path
       id="path950"
       style="fill:#008000;fill-opacity:1;stroke:none;stroke-width:0.0649999;stroke-linecap:round;stroke-linejoin:round"
       d="m 29.047526,-12.4006 a 3.9837061,2.5731331 0 0 0 -3.741374,1.779737 3.9837061,2.5731331 0 0 0 3.788916,1.7792193 3.9837061,2.5731331 0 0 0 3.788916,-1.7797363 3.9837061,2.5731331 0 0 0 -3.788916,-1.77922 3.9837061,2.5731331 0 0 0 -0.04754,0 z m 0.04754,0.322461 a 1.4570754,1.4570754 0 0 1 1.457276,1.456759 1.4570754,1.4570754 0 0 1 -1.457276,1.4572754 1.4570754,1.4570754 0 0 1 -1.457275,-1.4572754 1.4570754,1.4570754 0 0 1 1.457275,-1.456759 z m 0,0.775147 a 0.68203531,0.68203531 0 0 0 -0.682128,0.681612 0.68203531,0.68203531 0 0 0 0.682128,0.6821288 0.68203531,0.68203531 0 0 0 0.682129,-0.6821288 0.68203531,0.68203531 0 0 0 -0.682129,-0.681612 z" />
    <path
       id="path898"
       style="fill:none;fill-opacity:1;stroke:#000000;stroke-width:0.351926;stroke-linecap:round;stroke-linejoin:round;stroke-miterlimit:4;stroke-dasharray:none;stroke-opacity:1"
       d="M 4.0142997,1.4179429 V 2.8542755 A 3.5483974,3.5483974 0 0 0 1.1542165,4.8980309 3.5483974,3.5483974 0 0 0 0.89077691,7.0487553 3.5483974,3.5483974 0 0 1 0.97886601,6.8402687 3.5483974,3.5483974 0 0 1 4.0142952,4.7835099 V 6.208517 L 7.638688,3.8132296 Z" />
  </g>
</svg>
