<?xml version="1.0" encoding="UTF-8" standalone="no"?>
<svg
   xmlns:dc="http://purl.org/dc/elements/1.1/"
   xmlns:cc="http://creativecommons.org/ns#"
   xmlns:rdf="http://www.w3.org/1999/02/22-rdf-syntax-ns#"
   xmlns:svg="http://www.w3.org/2000/svg"
   xmlns="http://www.w3.org/2000/svg"
   xmlns:sodipodi="http://sodipodi.sourceforge.net/DTD/sodipodi-0.dtd"
   xmlns:inkscape="http://www.inkscape.org/namespaces/inkscape"
   width="32"
   height="32"
   viewBox="0 0 8.4666665 8.4666669"
   version="1.1"
   id="svg8"
   inkscape:version="1.0.2 (e86c870879, 2021-01-15, custom)"
   sodipodi:docname="views-icon.svg">
  <defs
     id="defs2" />
  <sodipodi:namedview
     id="base"
     pagecolor="#ffffff"
     bordercolor="#666666"
     borderopacity="1.0"
     inkscape:pageopacity="0.0"
     inkscape:pageshadow="2"
     inkscape:zoom="7.008319"
     inkscape:cx="28.421628"
     inkscape:cy="15.930082"
     inkscape:document-units="px"
     inkscape:current-layer="layer1"
     inkscape:document-rotation="0"
     showgrid="false"
     units="px"
     inkscape:window-width="1920"
     inkscape:window-height="1017"
     inkscape:window-x="-8"
     inkscape:window-y="-8"
     inkscape:window-maximized="1" />
  <metadata
     id="metadata5">
    <rdf:RDF>
      <cc:Work
         rdf:about="">
        <dc:format>image/svg+xml</dc:format>
        <dc:type
           rdf:resource="http://purl.org/dc/dcmitype/StillImage" />
        <dc:title />
      </cc:Work>
    </rdf:RDF>
  </metadata>
  <g
     inkscape:label="Layer 1"
     inkscape:groupmode="layer"
     id="layer1">
    <path
       id="path950"
       style="fill:none;fill-opacity:1;stroke:#000000;stroke-width:0.396875;stroke-linecap:round;stroke-linejoin:round;stroke-miterlimit:4;stroke-dasharray:none;stroke-opacity:1"
       d="m 4.1930506,2.725593 a 3.3754126,2.1802276 0 0 0 -3.170083,1.5079789 3.3754126,2.1802276 0 0 0 3.210366,1.507541 3.3754126,2.1802276 0 0 0 3.210366,-1.5079788 3.3754126,2.1802276 0 0 0 -3.210366,-1.5075411 3.3754126,2.1802276 0 0 0 -0.04028,0 z m 0.04028,0.2732227 a 1.2345867,1.2345867 0 0 1 1.234757,1.2343184 1.2345867,1.2345867 0 0 1 -1.234756,1.2347562 1.2345867,1.2345867 0 0 1 -1.234756,-1.2347562 1.2345867,1.2345867 0 0 1 1.234756,-1.2343184 z" />
    <path
       style="fill:#000000;fill-opacity:1;stroke:none;stroke-width:0.0550747;stroke-linecap:round;stroke-linejoin:round"
       d="m 4.2334736,3.6555488 a 0.57789168,0.57789168 0 0 0 -0.57797,0.577533 0.57789168,0.57789168 0 0 0 0.57797,0.5779709 0.57789168,0.57789168 0 0 0 0.577971,-0.5779709 0.57789168,0.57789168 0 0 0 -0.577971,-0.577533 z"
       id="path838" />
  </g>
</svg>
