<svg width="32" height="32" version="1.1" viewBox="0 0 8.4667 8.4667" xmlns="http://www.w3.org/2000/svg">
<path d="m2.5111 1.5302c-.92525-9.88e-5-1.6754.74988-1.6755 1.6751-6.76e-5.48544.21618 1.2193.79826 1.8434 1.1907 1.2767 2.5985 1.8877 2.5985 1.8877 0 0 .00108-.0007457.00117-.0007605 1.17e-5 8.7e-6.0007386.0007605.0007386.0007605s1.4079-.61093 2.5985-1.8877c.58209-.62415.79834-1.358.79827-1.8434-.0001278-.92525-.75026-1.6752-1.6755-1.6751-.75946 9.2e-5-1.4145.24285-1.6251.84138v-.00497c-.014446.040456-.026272.082995-.036629.12668-2.83e-5.0001196 2.83e-5.000254 0 .0003908-5.51e-5.0002345 5.51e-5.0005274 0 .0007605-.023218.098289-.036613.11889-.03663.23467h-.047704c-1.59e-5-.11607-.013303-.13693-.03663-.23543-.010371-.043811-.022142-.086505-.03663-.12707v.00497c-.21066-.59854-.8657-.8413-1.6252-.84139z" fill="none" stroke="#000" stroke-linecap="round" stroke-linejoin="round" stroke-width=".39688"/>
</svg>
