<svg width="32" height="32" version="1.1" viewBox="0 0 8.4667 8.4667" xmlns="http://www.w3.org/2000/svg">
<path d="m29.048-12.401a3.9837 2.5731 0 00-3.7414 1.7797 3.9837 2.5731 0 003.7889 1.7792 3.9837 2.5731 0 003.7889-1.7797 3.9837 2.5731 0 00-3.7889-1.7792 3.9837 2.5731 0 00-.04754 0zm.04754.32246a1.4571 1.4571 0 011.4573 1.4568 1.4571 1.4571 0 01-1.4573 1.4573 1.4571 1.4571 0 01-1.4573-1.4573 1.4571 1.4571 0 011.4573-1.4568zm0 .77515a.68204.68204 0 00-.68213.68161.68204.68204 0 00.68213.68213.68204.68204 0 00.68213-.68213.68204.68204 0 00-.68213-.68161z" fill="#008000"/>
<path d="m4.0143 1.4179v1.4363a3.5484 3.5484 0 00-2.8601 2.0438 3.5484 3.5484 0 00-.26344 2.1507 3.5484 3.5484 0 01.088089-.20849 3.5484 3.5484 0 013.0354-2.0568v1.425l3.6244-2.3953z" fill="none" stroke="#000" stroke-linecap="round" stroke-linejoin="round" stroke-width=".35193"/>
</svg>
