<svg width="32" height="32" version="1.1" viewBox="0 0 8.4667 8.4667" xmlns="http://www.w3.org/2000/svg">
<path d="m4.1931 2.7256a3.3754 2.1802 0 00-3.1701 1.508 3.3754 2.1802 0 003.2104 1.5075 3.3754 2.1802 0 003.2104-1.508 3.3754 2.1802 0 00-3.2104-1.5075 3.3754 2.1802 0 00-.04028 0zm.04028.27322a1.2346 1.2346 0 011.2348 1.2343 1.2346 1.2346 0 01-1.2348 1.2348 1.2346 1.2346 0 01-1.2348-1.2348 1.2346 1.2346 0 011.2348-1.2343z" fill="none" stroke="#000" stroke-linecap="round" stroke-linejoin="round" stroke-width=".39688"/>
<path d="m4.2335 3.6555a.57789.57789 0 00-.57797.57753.57789.57789 0 00.57797.57797.57789.57789 0 00.57797-.57797.57789.57789 0 00-.57797-.57753z"/>
</svg>
